<svg width="138" height="27" viewBox="0 0 138 27" fill="none" xmlns="http://www.w3.org/2000/svg">
<path d="M7.19 3.158L6.11 11.996H15.56L15.164 15.002H5.732L4.382 26H0.674L3.842 0.151998H18.656L18.278 3.158H7.19ZM29.4959 10.106C29.0279 10.034 28.5659 9.998 28.1099 9.998C27.0419 9.998 26.0399 10.25 25.1039 10.754C24.1679 11.246 23.3519 11.912 22.6559 12.752C21.9719 13.592 21.4259 14.57 21.0179 15.686C20.6219 16.79 20.4239 17.948 20.4239 19.16C20.4239 20.564 20.6519 21.614 21.1079 22.31C21.5639 22.994 22.2239 23.336 23.0879 23.336C23.6519 23.336 24.2039 23.156 24.7439 22.796C25.2959 22.424 25.8119 21.92 26.2919 21.284C26.7839 20.636 27.2339 19.874 27.6419 18.998C28.0619 18.122 28.4279 17.168 28.7399 16.136L29.4959 10.106ZM28.2719 21.428C27.8519 22.16 27.3959 22.826 26.9039 23.426C26.4239 24.014 25.9079 24.518 25.3559 24.938C24.8159 25.358 24.2399 25.682 23.6279 25.91C23.0279 26.138 22.4039 26.252 21.7559 26.252C21.0359 26.252 20.3759 26.114 19.7759 25.838C19.1879 25.55 18.6779 25.136 18.2459 24.596C17.8259 24.044 17.4959 23.366 17.2559 22.562C17.0279 21.758 16.9139 20.834 16.9139 19.79C16.9139 18.71 17.0459 17.654 17.3099 16.622C17.5859 15.578 17.9759 14.6 18.4799 13.688C18.9839 12.776 19.5839 11.936 20.2799 11.168C20.9879 10.4 21.7739 9.74 22.6379 9.188C23.5019 8.636 24.4319 8.21 25.4279 7.91C26.4359 7.598 27.4859 7.442 28.5779 7.442C29.3699 7.442 30.1439 7.508 30.8999 7.64C31.6679 7.76 32.4239 7.976 33.1679 8.288L30.9719 26H29.1359C28.6799 26 28.3739 25.886 28.2179 25.658C28.0619 25.418 27.9839 25.13 27.9839 24.794L28.2719 21.428ZM40.4461 12.644C40.9261 11.648 41.4421 10.79 41.9941 10.07C42.5461 9.338 43.1221 8.768 43.7221 8.36C44.3221 7.94 44.9401 7.688 45.5761 7.604C46.2241 7.508 46.8721 7.604 47.5201 7.892L46.8901 11.276C45.3421 10.652 43.9861 10.862 42.8221 11.906C41.6581 12.95 40.7161 14.882 39.9961 17.702L38.9881 26H35.5501L37.7641 7.676H39.5281C39.9121 7.676 40.2061 7.772 40.4101 7.964C40.6141 8.156 40.7161 8.456 40.7161 8.864L40.4461 12.644ZM47.9603 26L50.1743 7.676H51.9383C52.3223 7.676 52.6163 7.772 52.8203 7.964C53.0243 8.156 53.1263 8.456 53.1263 8.864L52.9103 11.798C53.7863 10.358 54.7463 9.272 55.7903 8.54C56.8343 7.808 57.9383 7.442 59.1023 7.442C60.3023 7.442 61.2023 7.85 61.8023 8.666C62.4143 9.482 62.7323 10.664 62.7563 12.212C63.6563 10.58 64.6583 9.38 65.7623 8.612C66.8783 7.832 68.0663 7.442 69.3263 7.442C70.8983 7.442 72.0203 8.036 72.6923 9.224C73.3643 10.412 73.5623 12.122 73.2863 14.354L71.9183 26H68.4623L69.8303 14.354C69.9983 12.986 69.9563 11.978 69.7043 11.33C69.4523 10.682 68.9063 10.358 68.0663 10.358C67.5623 10.358 67.0643 10.484 66.5723 10.736C66.0803 10.988 65.6063 11.366 65.1503 11.87C64.6943 12.362 64.2683 12.968 63.8723 13.688C63.4763 14.408 63.1283 15.236 62.8283 16.172L61.6583 26H58.2023L59.5703 14.354C59.6543 13.67 59.6903 13.076 59.6783 12.572C59.6783 12.068 59.6123 11.654 59.4803 11.33C59.3603 11.006 59.1683 10.766 58.9043 10.61C58.6523 10.442 58.3163 10.358 57.8963 10.358C57.3443 10.358 56.8103 10.502 56.2943 10.79C55.7903 11.066 55.3103 11.468 54.8543 11.996C54.4103 12.524 53.9903 13.166 53.5943 13.922C53.2103 14.666 52.8623 15.512 52.5503 16.46L51.3983 26H47.9603ZM97.7145 0.151998L84.8985 26H81.5505L75.0525 0.151998H78.0045C78.3285 0.151998 78.5865 0.235998 78.7785 0.403999C78.9705 0.571998 79.0905 0.775999 79.1385 1.016L83.2425 18.854C83.3505 19.274 83.4525 19.736 83.5485 20.24C83.6445 20.732 83.7225 21.248 83.7825 21.788C83.9505 21.248 84.1365 20.732 84.3405 20.24C84.5445 19.736 84.7485 19.274 84.9525 18.854L93.3945 1.016C93.4905 0.8 93.6645 0.601999 93.9165 0.421998C94.1685 0.241998 94.4505 0.151998 94.7625 0.151998H97.7145ZM103.832 9.962C103.112 9.962 102.452 10.112 101.852 10.412C101.252 10.7 100.712 11.108 100.232 11.636C99.752 12.152 99.344 12.764 99.008 13.472C98.672 14.168 98.408 14.93 98.216 15.758C99.98 15.53 101.39 15.278 102.446 15.002C103.514 14.726 104.336 14.426 104.912 14.102C105.488 13.766 105.866 13.412 106.046 13.04C106.238 12.668 106.334 12.272 106.334 11.852C106.334 11.648 106.286 11.438 106.19 11.222C106.106 10.994 105.962 10.79 105.758 10.61C105.566 10.418 105.308 10.262 104.984 10.142C104.672 10.022 104.288 9.962 103.832 9.962ZM109.052 22.616C108.428 23.252 107.822 23.798 107.234 24.254C106.646 24.71 106.04 25.088 105.416 25.388C104.804 25.688 104.162 25.904 103.49 26.036C102.818 26.18 102.086 26.252 101.294 26.252C100.25 26.252 99.302 26.078 98.45 25.73C97.61 25.37 96.896 24.866 96.308 24.218C95.72 23.57 95.264 22.79 94.94 21.878C94.628 20.954 94.472 19.922 94.472 18.782C94.472 17.834 94.568 16.898 94.76 15.974C94.964 15.038 95.258 14.156 95.642 13.328C96.026 12.488 96.494 11.708 97.046 10.988C97.598 10.268 98.228 9.65 98.936 9.134C99.644 8.606 100.424 8.198 101.276 7.91C102.128 7.61 103.046 7.46 104.03 7.46C104.966 7.46 105.776 7.592 106.46 7.856C107.144 8.12 107.708 8.462 108.152 8.882C108.608 9.29 108.944 9.746 109.16 10.25C109.376 10.754 109.484 11.246 109.484 11.726C109.484 12.518 109.322 13.25 108.998 13.922C108.674 14.582 108.08 15.182 107.216 15.722C106.364 16.25 105.188 16.712 103.688 17.108C102.188 17.504 100.262 17.822 97.91 18.062C97.898 18.17 97.892 18.278 97.892 18.386C97.892 18.494 97.892 18.602 97.892 18.71C97.892 20.282 98.228 21.47 98.9 22.274C99.584 23.078 100.61 23.48 101.978 23.48C102.542 23.48 103.046 23.426 103.49 23.318C103.934 23.198 104.324 23.054 104.66 22.886C105.008 22.718 105.314 22.538 105.578 22.346C105.842 22.142 106.082 21.956 106.298 21.788C106.526 21.62 106.736 21.482 106.928 21.374C107.12 21.254 107.318 21.194 107.522 21.194C107.654 21.194 107.768 21.23 107.864 21.302C107.972 21.362 108.074 21.44 108.17 21.536L109.052 22.616ZM123.667 10.772C123.559 10.928 123.451 11.042 123.343 11.114C123.247 11.174 123.121 11.204 122.965 11.204C122.785 11.204 122.593 11.138 122.389 11.006C122.197 10.874 121.957 10.73 121.669 10.574C121.393 10.418 121.057 10.274 120.661 10.142C120.265 10.01 119.785 9.944 119.221 9.944C118.693 9.944 118.219 10.016 117.799 10.16C117.379 10.304 117.013 10.502 116.701 10.754C116.401 10.994 116.167 11.282 115.999 11.618C115.843 11.954 115.765 12.308 115.765 12.68C115.765 13.088 115.873 13.43 116.089 13.706C116.305 13.982 116.587 14.228 116.935 14.444C117.283 14.648 117.679 14.834 118.123 15.002C118.579 15.17 119.041 15.35 119.509 15.542C119.977 15.722 120.433 15.926 120.877 16.154C121.333 16.382 121.735 16.664 122.083 17C122.431 17.324 122.713 17.72 122.929 18.188C123.145 18.656 123.253 19.214 123.253 19.862C123.253 20.714 123.085 21.53 122.749 22.31C122.413 23.078 121.927 23.762 121.291 24.362C120.667 24.95 119.911 25.418 119.023 25.766C118.135 26.114 117.139 26.288 116.035 26.288C114.871 26.288 113.833 26.078 112.921 25.658C112.009 25.238 111.271 24.704 110.707 24.056L111.571 22.706C111.799 22.358 112.105 22.184 112.489 22.184C112.693 22.184 112.891 22.268 113.083 22.436C113.287 22.604 113.533 22.79 113.821 22.994C114.109 23.186 114.463 23.366 114.883 23.534C115.303 23.702 115.843 23.786 116.503 23.786C117.067 23.786 117.571 23.702 118.015 23.534C118.471 23.366 118.855 23.144 119.167 22.868C119.479 22.58 119.713 22.25 119.869 21.878C120.037 21.506 120.121 21.11 120.121 20.69C120.121 20.246 120.013 19.874 119.797 19.574C119.581 19.262 119.299 19.004 118.951 18.8C118.603 18.584 118.201 18.398 117.745 18.242C117.301 18.074 116.845 17.906 116.377 17.738C115.921 17.558 115.465 17.366 115.009 17.162C114.565 16.946 114.169 16.676 113.821 16.352C113.473 16.028 113.191 15.638 112.975 15.182C112.759 14.714 112.651 14.15 112.651 13.49C112.651 12.71 112.807 11.96 113.119 11.24C113.431 10.508 113.875 9.86 114.451 9.296C115.039 8.732 115.747 8.282 116.575 7.946C117.415 7.61 118.363 7.442 119.419 7.442C120.547 7.442 121.531 7.628 122.371 8C123.223 8.36 123.955 8.858 124.567 9.494L123.667 10.772ZM127.694 22.472C127.694 22.4 127.694 22.31 127.694 22.202C127.694 22.082 127.7 21.914 127.712 21.698C127.736 21.482 127.766 21.194 127.802 20.834C127.85 20.474 127.91 20.012 127.982 19.448L129.08 10.556H127.118C126.938 10.556 126.788 10.496 126.668 10.376C126.56 10.244 126.524 10.052 126.56 9.8L126.722 8.378L129.512 7.964L130.916 2.51C130.976 2.306 131.072 2.15 131.204 2.042C131.348 1.922 131.522 1.862 131.726 1.862H133.598L132.824 8H137.522L137.234 10.556H132.518L131.438 19.268C131.378 19.76 131.33 20.156 131.294 20.456C131.258 20.756 131.228 20.996 131.204 21.176C131.192 21.344 131.18 21.464 131.168 21.536C131.168 21.608 131.168 21.662 131.168 21.698C131.168 22.262 131.306 22.688 131.582 22.976C131.858 23.264 132.224 23.408 132.68 23.408C132.98 23.408 133.238 23.366 133.454 23.282C133.682 23.198 133.88 23.108 134.048 23.012C134.216 22.904 134.354 22.808 134.462 22.724C134.582 22.64 134.69 22.598 134.786 22.598C134.894 22.598 134.978 22.628 135.038 22.688C135.098 22.736 135.158 22.82 135.218 22.94L135.956 24.632C135.344 25.16 134.66 25.568 133.904 25.856C133.148 26.144 132.386 26.288 131.618 26.288C130.418 26.288 129.47 25.964 128.774 25.316C128.078 24.656 127.718 23.708 127.694 22.472Z" fill="white"/>
</svg>
